<svg  viewBox="0 0 2100 500" fill="none" xmlns="http://www.w3.org/2000/svg">
<style>
  text{fill:#FFD705; white-space: pre; font-family:"Roboto"; font-size:24px; letter-spacing:0em}
</style>
  <path d="M0.6 271.3C15.2 256.7 19.5 273.1 30.4 274.5C38.6 275.6 44.4 266.5 52.7 265.7C67.3 264.2 67.8 274.4 77.4 281.8C90.9 270.8 100.8 79.5 100.8 79.5C100.8 79.5 112.3 251.4 114.1 318.1C115.7 303.7 115.5 281.2 124.2 268.4C134.7 253.1 147.4 250.6 153.8 230.9C158.4 217 169.8 181 186.3 205.7C196.3 220.7 191.1 259.5 210.7 267.8C214.7 269.5 224.3 266.1 229.8 266C235.3 265.9 237.3 269.3 241.9 268.1C246.5 266.9 249.3 261.2 253.6 259.8C266.8 255.5 267.9 262.7 274.5 272.9C283.4 286.4 281.7 284.8 293.7 275.7C299.6 271.2 309 263.6 317.2 265.2C327.2 267.1 327.6 284.4 334.1 285.4C338.6 286 341.7 277.8 347.2 276.8C362.1 274.1 365.2 290.4 371.2 299.9C380.1 288.6 380.4 266.7 382 253.4C385.4 226.3 394.8 105.9 394.8 105.9C394.8 105.9 406.3 243.5 408.3 302.4C410 289.3 410.6 259 419.5 248.1C426.1 239.9 438.6 237.6 446 230.4C456.9 219.7 455.5 203.3 463.4 190.5C489.9 147.1 501 250.9 504.4 266.9C505.6 272.7 506.1 283.7 512 286.9C515 288.6 523.8 280.1 533.4 285.9C543 291.7 556.5 285.2 568.1 286.3C581.6 287.6 584.7 284.7 595 275.7C600.5 270.9 604.6 263.3 613.4 264.3C625.9 265.6 624.8 281.7 634.5 285.9C648.2 291.8 648.4 276 659.4 273.8C670.4 271.6 674.7 286.2 681.6 293.2C693 278.4 690.7 244.8 692 227.1C694.8 188.9 703.8 52.6 703.8 52.6C703.8 52.6 714.7 239.3 716.8 317.9C718.4 304.1 717.8 279 727.6 267.4C731.9 262.3 740.3 263.6 743.7 260.1C747.1 256.6 746.5 252.7 748.1 249C754.9 234.1 766.4 211.3 782.1 231.2C791.3 242.9 786.3 268.8 800.9 275.8C809.1 279.7 823.2 273.8 832.5 274C837.3 274.1 839.8 277.1 844.6 275.4C849.4 273.7 851.3 265.7 855.4 262.9C868 254.4 869.6 262 878.4 272.1C887.2 282.2 889.1 281.1 900.5 272.8C906.9 268.2 910.6 262.5 919.6 262.4C924.5 262.4 929.8 267.7 934.1 267.2C943.7 266.1 940.2 262.2 947 258.1C975.3 240.8 974.9 276 984.1 296.5C998.8 297.7 1006.4 114.1 1006.4 114.1C1006.4 114.1 1016.4 286.4 1018.1 350.3C1019.8 335.5 1019.7 313.2 1028.6 300.1C1031.5 295.7 1037.3 293 1041.2 289.6C1053.6 278.8 1055.2 269.9 1060.5 254.6C1065.8 239.3 1079.3 216.2 1095 236.9C1101.4 245.3 1099 248.1 1106.9 254C1118.6 262.8 1118.1 257.3 1131 257.5C1135.7 257.6 1139.6 261.1 1144.4 260.9C1149.2 260.7 1154.8 256.4 1160.5 256.9C1173.2 258 1173.1 266.7 1180.1 275.3C1190.8 288.5 1183.9 281.2 1195.8 277.4C1209.6 273 1203.5 280.9 1215.4 282.7C1227.3 284.5 1219.1 276.7 1227.7 271.4C1240.2 263.8 1241.9 279.3 1250.5 282.4C1270 289.4 1267.2 250.7 1290 277.6C1298.3 257.9 1297 231.5 1298.3 210.8C1300.6 172.4 1307.8 96 1307.8 96C1307.8 96 1316.6 271.8 1318.3 335.8C1319.9 321.3 1320.9 281.1 1329.5 268.4C1340 253.1 1352.9 250.3 1359.2 230.9C1363.8 216.8 1375.2 181 1391.6 205.7C1403.1 222.9 1396.2 253.7 1414.8 267.1C1422.1 260.5 1421.8 247.8 1434.9 252.9C1439.9 254.9 1440.3 264.4 1444.4 266.1C1451.4 268.9 1444.5 266.3 1452.6 264.3C1460.7 262.3 1461.2 254 1471.7 259.8C1475 261.5 1477.9 269.9 1479.9 272.9C1488 284.7 1487.3 284.9 1498.4 276.3C1506.3 270.1 1517.5 261.4 1528.1 267.1C1538.7 272.8 1531.9 287.8 1543.7 280.1C1552.1 274.7 1547.3 257 1560.4 253.7C1577.7 249.5 1579.7 275 1591 280.9C1604.2 269.3 1606.5 236.7 1609.3 220.9C1611.4 208.5 1626.2 128.8 1626.2 128.8C1626.2 128.8 1637.2 307.7 1640.3 368.7C1642.6 350 1656.2 198.9 1693.9 223.8C1705.5 231.4 1702.2 250.7 1711.2 261C1720.2 271.3 1723.5 266.3 1736.5 266C1741.7 265.8 1745 268.4 1750.2 267.2C1755.4 266 1760.4 256.7 1767 257.3C1779.2 258.3 1781.1 278.9 1790.1 284.9C1793.7 282.3 1796.6 278.6 1800.4 277V0H0V273.6C0.8 273 -0.3 272.2 0.6 271.3Z" fill="#231F20"/>
  <path d="M1789 294.2C1782.9 293.8 1778.1 284.5 1775.2 280.3C1773.6 278.1 1768.5 266.8 1766.9 266.5C1765.3 266.2 1761.6 271.2 1759.5 271.5C1752.3 272.4 1749 276.8 1740.2 276.8C1735.6 276.9 1729.7 276.7 1725.5 276.5C1709.1 276.1 1703.2 268.2 1696.7 251.9C1694.5 246.3 1693.3 233.1 1687.7 230.8C1676.1 226 1672.1 248.1 1669.7 255.8C1663.5 275.9 1634.3 430.7 1634.3 430.7C1634.3 430.7 1624.3 229.4 1622.5 193.4C1620.7 207.2 1614.7 290 1591 290C1576.9 290 1572.9 256.5 1559.9 264.7C1549.5 271.2 1555.4 301.2 1534.9 291.9C1520.8 285.4 1529 267.4 1509.4 279C1502.5 283 1496.6 295 1487.6 294.2C1481.2 293.6 1477.1 285 1473.9 280.3L1465.5 266.5C1462.91 267.922 1460.46 269.597 1458.2 271.5C1450.1 272.4 1451.5 280.3 1442.1 276.8C1435.6 274.5 1435 264.1 1429.7 260.3C1425.1 265 1423.9 275.3 1416.1 276.2C1406 277.4 1399.6 261.7 1396.5 254.5C1390.8 241.5 1392.7 213.5 1381 205.6C1373.2 208.4 1370.6 224.9 1368.4 231.6C1363.1 247.9 1357.9 255.1 1345.2 266.9C1332.5 278.7 1332.2 289.9 1329.8 307.9C1327.4 325.9 1318.5 407.4 1317.3 407.7C1313.7 408.9 1310.6 322.3 1309.6 286.8C1308.9 260.9 1307.3 222.1 1306.6 196.2C1305.6 213.2 1310.3 267.1 1298.3 281.3C1286.3 295.5 1287.5 280.2 1274.9 276C1267.1 284.6 1267.9 297.4 1251.8 293.1C1243.3 290.8 1241.2 280.8 1233.7 278.2C1228.1 283.4 1229.7 292.4 1220.1 293.9C1212.1 295 1206.7 284.4 1201 285C1195.3 285.6 1192.9 295.7 1183.8 292.9C1172.6 289.5 1173.4 271.7 1164.6 267.3C1158.2 264 1148 269.5 1140 269.7C1136.4 269.8 1127.9 268 1124.4 267.7C1120.9 267.4 1119.7 270.6 1117.2 270.2C1112.5 269.5 1098 262.2 1094.6 258.5C1091.2 254.8 1091 241.6 1084.1 238.7C1071.3 233.3 1067.6 264.9 1064.7 272.3C1058.1 289.1 1042.2 294.3 1034.4 308.6C1025.9 324.5 1017.5 441.3 1017.5 441.3C1017.5 441.3 1009.5 363 1008.7 337.5C1007.7 298.367 1006.63 259.333 1005.5 220.4C1004 240.5 1006.3 283 992.4 300C970.7 326.4 973 264.2 960.9 260.6C954.2 258.6 945.2 275.9 935.2 276.4C920.9 276.9 920.9 269.5 907.4 278.6C902.9 281.7 897.5 289 892.1 289.9C878.5 292.4 870.7 276.9 863.6 267.5C858.5 272.2 854.9 281 848.6 284.1C839.9 288.4 835.4 282.2 826.9 282.3C806.9 282.4 794.5 292.5 783.9 268C780.9 260.9 779.8 231.6 770.5 231.7C763.5 231.8 759.3 245.5 757.3 250.1C752.2 262.2 752.5 262.2 743.7 269.2C734.9 276.2 735.7 271.6 731.7 281.2C726.3 294.6 710.2 405.9 710.2 405.9C710.2 405.9 707.7 313.8 707 288.9C706 251.5 705 214 703.9 176.6C702.6 204.6 701.4 232.8 698 260.6C696.9 269.3 696.4 297.1 685.6 301.6C674.8 306.1 673.4 292.4 667.1 287.6C656.1 279.4 665.7 284.6 653.8 291.1C644.3 296.4 636.4 298.9 626.8 291.1C617.2 283.3 619.8 271.8 607.2 275.6C601 277.5 594.9 289.9 588.6 293.2C577 299.3 571.1 292.4 561.3 292.3C553.1 292.3 545.8 296.7 537.4 296.8C533.5 296.9 529.5 293.4 525.5 293.3C521.5 293.2 519.8 297.1 516.5 296.9C495.6 295.5 495.2 268.1 492.5 251.7C490.2 237.6 489.9 196.2 477 187.5C470.4 189.9 467.2 204.9 465.4 210.2C460.9 224 458.9 232.3 446.5 241.2C431.8 251.9 425.9 251 421.6 267.7C413.8 297.7 407.3 369.6 407.3 369.6C407.3 369.6 399.1 286.1 398.5 268.2L396.1 198.2C395.2 211 394.9 311.3 370.5 309.7C360.6 309 361.8 294.1 355.7 289.6C344.8 281.7 351.5 288.8 344.1 290.8C330.2 294.5 333.1 294.4 323 285.1C314.9 277.8 322.7 271.5 307.1 277.3C299.5 280.2 294.9 291.6 287.2 293.2C275.9 295.7 272.5 284.6 266.5 276.9C255.5 263.1 261.7 270 247.2 275.6C237.8 279.2 231.7 275.2 222.3 275C212.9 274.8 212 280.2 202.4 272.9C195.8 267.9 191.8 257.1 189.2 249.6C185.1 238 186.3 212.7 175.6 205.6C167.6 208.5 164.3 228.3 162.2 234.7C159.4 242.8 157.9 249.4 152.2 256.2C146.5 263 136.5 266.2 132 273.1C124.7 284.4 122.3 302.8 120.9 315.4C119.5 328 110.4 403.9 110.4 403.9C110.4 403.9 103.4 258.3 101.6 192.7C100.7 206.3 100.3 301.9 71.2 288.4C61 283.7 63.9 273.2 50.1 275.4C43.1 276.5 39.7 284.9 31.1 283.9C24.8 283.2 21.9 275.2 16.8 274.6C9.6 273.7 6.7 281.1 0 282.9V500.5H1800.4V289.6C1798.9 291.085 1797.12 292.257 1795.16 293.046C1793.21 293.836 1791.11 294.228 1789 294.2Z" fill="#231F20"/>
  <text><tspan x="92.0" y="484">1</tspan></text>
  <text><tspan x="390.0" y="484">2</tspan></text>
  <text><tspan x="688.0" y="484">3</tspan></text>
  <text><tspan x="1001.0" y="484">4</tspan></text>
  <text><tspan x="1299.0" y="484">5</tspan></text>
  <text><tspan x="1612.0" y="484">6</tspan></text>
  <text><tspan x="1945.0" y="484">7</tspan></text>
</svg>